<svg xmlns="http://www.w3.org/2000/svg" aria-hidden="true" style="position:absolute;width:0;height:0;overflow:hidden">
  <defs>
    <symbol id="icon-thewallstreet" viewBox="0 0 373 32">
      <path fill="#fff" d="M371.334 27.361c-1.009 0-2.018 1.008-2.018 2.016 0 1.26 1.009 2.016 2.018 2.016s2.018-1.008 2.018-2.016c0-1.26-.756-2.016-2.018-2.016zm-71.892 4.031h9.082v-.756l-1.009-.252c-1.009-.252-1.261-.756-1.261-2.016V16.273h2.017c1.262 0 2.018.252 2.018 3.024l.253 5.795c.252 5.039 1.765 6.551 4.288 6.551s3.279-1.764 3.279-4.284v-1.008H317.1v.756c0 1.764-.252 2.772-.756 2.772s-.505-.504-.756-2.52l-.253-4.031c-.252-5.291-1.009-7.055-5.045-7.811 3.785-1.008 6.054-3.78 6.054-7.559 0-5.039-4.036-7.559-7.82-7.559h-15.388v.756l.757.252c1.514.252 1.765 1.26 1.765 4.787v18.142c0 4.031-1.009 6.047-3.783 6.047-2.271 0-3.532-1.008-3.532-5.543V3.423c0-1.26.505-1.512 1.514-1.764l1.261-.252V.651h-9.333v.756l1.009.252c1.009.252 1.262.504 1.262 1.764v21.165c0 4.787 2.774 7.307 6.811 7.307 4.288 0 6.306-2.52 6.306-7.559V4.682c0-2.52.505-3.276 2.523-3.276 1.514 0 2.27.504 2.27 2.016v25.197c0 1.26-.505 1.764-1.261 2.016l-1.009.252v.756h-.253v-.252zm60.794-27.968c0-1.26.505-1.764 1.261-1.764l1.261-.252V.652h-9.332v.756l1.008.252c1.009.252 1.262.504 1.262 1.764v25.449c0 1.26-.505 1.764-1.766 1.764-1.513 0-1.765-.504-2.522-3.276L345.605.148h-1.765l-5.55 26.205c-.505 3.024-1.009 3.528-2.27 4.031l-.757.252v.756h6.307v-.756l-1.009-.252c-1.262-.252-1.766-1.008-1.009-4.284l3.279-16.63 3.532 17.89c.505 2.52.505 3.024-1.514 3.528l-1.009.252v.756h23.964V21.565h-.756c-.505 4.787-1.514 9.071-5.297 9.071h-1.766l.253-27.213zm-14.379 19.653v-1.26h-6.054l-.252 1.26h6.306zM320.631 3.928v21.669c0 3.276 0 4.787-1.514 5.039l-.756.252v.756h6.559v-.756c-2.775-.504-2.775-1.512-2.775-4.788V5.439l-1.009-1.008 11.1 27.213h1.765V6.447c0-3.78 0-4.535 1.765-5.039l.505-.252V.4h-6.811v.756l.757.252c2.27.504 2.27 1.26 2.27 4.787v15.622l.505-.252L324.668.148h-6.306v.756l.505.252c.505.252 1.009 1.008 1.765 2.772zm-14.377-2.772h1.765c1.765 0 3.532 1.26 3.532 7.055 0 6.047-1.262 6.551-3.785 6.551h-1.513V1.156zm-30.271 14.362c0 12.85-1.009 14.866-3.532 14.866-2.27 0-3.279-1.764-3.279-14.614 0-12.347 1.009-14.362 3.279-14.362 2.523-.252 3.532 1.764 3.532 14.11zm5.045.252c0-8.567-2.774-15.622-8.324-15.622s-8.324 7.055-8.324 15.622 2.774 15.622 8.324 15.622c5.55.252 8.324-6.803 8.324-15.622zM261.604 3.424c0-1.26.253-1.764 1.262-1.764l1.009-.252V.652h-9.333v.756l1.009.252c1.009.252 1.514.504 1.514 1.764v21.921c0 3.024-.253 5.543-2.523 5.543-1.514 0-2.523-1.008-2.523-2.016.252-1.512 2.523-1.26 2.774-3.528.253-1.512-1.009-2.268-1.765-2.52-1.514-.252-3.027 1.008-3.027 3.276 0 3.024 2.018 5.795 5.297 5.795 3.785 0 6.559-2.52 6.559-7.307l-.253-21.165zm-151.098 0c0-1.26.505-1.764 1.261-1.764l1.262-.252V.652h-9.333v.756l1.009.252c1.009.252 1.261.504 1.261 1.764v25.449c0 1.26-.505 1.764-1.766 1.764-1.514 0-1.766-.504-2.523-3.276L95.875.148h-1.766l-5.55 26.205c-.505 3.024-1.009 3.528-2.27 4.031l-.757.252v.756h6.306v-.756l-1.009-.252c-1.261-.252-1.766-1.008-1.009-4.284l3.279-16.63 3.532 17.89c.504 2.52.505 3.024-1.513 3.528l-1.009.252v.756h24.216V21.565h-.756c-.505 4.787-1.514 9.071-5.298 9.071h-1.765V3.423zM236.38 1.156h1.009c2.774 0 3.783 4.535 4.036 9.071h.756V-.104h-16.397v10.331h.757c.252-4.787 1.261-9.071 4.036-9.071h1.009v26.961c0 1.26-.505 1.764-1.262 2.016l-1.261.252v.756h9.585v-.756l-1.514-.252c-.756-.252-1.261-.504-1.261-1.764l.505-27.213zM215.695 15.77h1.514c2.018 0 2.523.756 3.027 5.795h.756V9.218h-.756c-.505 3.78-1.009 5.543-3.027 5.543h-1.514V1.407h3.027c3.532 0 4.288 4.283 4.793 9.071h.756V.147h-15.387v.756l1.009.252c1.009.252 1.261 1.008 1.261 2.016v25.197c0 1.26-.505 1.764-1.261 2.016l-1.009.252v.756h15.891V21.061h-.505c-.505 4.787-1.009 9.071-5.044 9.071h-3.027l-.505-14.362zm-16.901 0h1.514c2.018 0 2.523.756 3.027 5.795h.757V9.218h-.757c-.505 3.78-1.009 5.543-3.027 5.543h-1.514V1.407h3.027c3.532 0 4.288 4.535 4.793 9.071h.757V.147h-15.892v.756l1.514.252c1.009.252 1.262 1.008 1.262 2.016v25.197c0 1.26-.505 1.764-1.262 2.016l-1.009.252v.756h15.892V21.061h-.757c-.505 4.787-1.009 9.071-5.044 9.071h-3.027v-14.11h-.253v-.252zM180.127 1.156h1.262c1.765 0 3.532 1.26 3.532 7.055s-1.262 6.551-3.785 6.551h-1.009V1.156zm-6.811 30.236h9.082v-.756l-1.009-.252c-1.009-.252-1.262-.756-1.262-2.016V16.273h1.766c1.261 0 2.018.504 2.018 3.024l.252 5.795c.253 5.039 1.765 6.551 4.288 6.551s3.28-1.764 3.28-4.284v-1.008h-1.009v.756c0 1.764-.253 2.772-.757 2.772s-.505-.504-.756-2.52l-.253-4.031c-.252-5.543-1.009-7.055-5.044-7.811 3.783-1.008 6.053-3.78 6.053-7.559 0-5.039-4.036-7.559-7.82-7.559h-8.576v.756l1.009.252c1.009.252 1.261.504 1.261 1.764v25.197c0 1.26-.505 1.764-1.261 2.016l-1.009.252v1.008h-.253v-.252zm-6.81-30.236h1.009c2.774 0 3.783 4.535 4.036 9.071h.756V-.104h-16.396v10.331h.756c.253-4.787 1.261-9.071 4.036-9.071h1.009v26.961c0 1.26-.505 1.764-1.262 2.016l-1.261.252v.756h9.585v-.756l-1.261-.252c-1.261-.252-1.261-1.26-1.261-2.016V1.156h.252zm-10.343 22.173c0-9.071-10.09-11.591-10.09-18.646 0-1.512.505-3.527 2.774-3.527 3.279 0 4.541 4.283 5.045 9.323h.756V.148h-.505c-.252 1.008-.505 1.512-1.261 1.512-1.009 0-1.514-1.512-4.036-1.512-3.783 0-6.306 3.276-6.306 7.307 0 7.559 10.09 10.835 10.09 18.142 0 3.276-1.514 5.039-3.532 5.039-3.026 0-5.044-3.527-5.549-9.323h-.757v10.331h.505c.505-1.512 1.009-1.512 1.514-1.512.757 0 1.766 1.764 4.288 1.764 3.532-.504 7.063-3.779 7.063-8.567zM126.398 3.424c0-1.26.505-1.764 1.261-1.764l1.262-.252V.652h-9.333v.756l1.008.252c1.009.252 1.262.504 1.262 1.764v25.197c0 1.26-.505 1.764-1.262 2.016l-1.008.252v.756h14.63V21.314h-.757c-.505 4.787-1.514 9.071-5.297 9.071h-1.765V3.424zM96.38 23.077v-1.26h-6.054l-.252 1.26h6.306zm-26.235 8.315h2.018l4.288-22.425h-.505l4.54 22.425H82l5.55-26.205c.504-2.772 1.009-3.779 2.018-4.031l.757-.252V.148h-6.306v.756l1.009.252c1.261.252 1.766 1.008 1.009 4.283l-3.532 17.638h.505L79.478 4.431c-.252-1.764-.505-3.276 1.009-3.528l1.009-.252v-.756h-8.577v.756l.505.252c1.009.252 1.009.756 1.513 2.52l1.514 6.803-.252-4.031-3.027 16.378h.505L70.145 4.431c-.505-1.764-.505-3.276 1.009-3.528l.757-.252v-.756h-8.829v.756l.757.252c.757.252 1.261.504 1.766 3.024l4.541 27.465zM45.929 15.77h1.514c2.018 0 2.523.756 3.027 5.795h.757V9.218h-.757c-.504 3.78-1.009 5.543-3.027 5.543h-1.514V1.407h3.027c3.532 0 4.288 4.535 4.793 9.071h.757V.147H39.119v.756l1.009.252c1.009.252 1.261 1.008 1.261 2.016v25.197c0 1.26-.504 1.764-1.261 2.016l-1.009.252v.756h16.144V21.061h-.757c-.505 4.787-1.009 9.071-5.045 9.071h-3.027v-14.11h-.505v-.252zM17.425 31.392h9.081v-.756l-1.009-.252c-.757-.252-1.261-.756-1.261-2.016V16.021h6.811v12.347c0 1.26-.505 1.764-1.261 2.016l-1.009.252v.756h9.081v-.756l-1.009-.252c-1.009-.252-1.261-.756-1.261-2.016V3.171c0-1.26.505-1.764 1.261-1.764l1.009-.252V.399h-9.081v.756l1.261.252c.757.252 1.261.504 1.261 1.764v11.59h-6.811V3.171c0-1.26.505-1.512 1.261-1.764l1.009-.252V.399h-9.333v.756l1.009.252c1.009.252 1.261.504 1.261 1.764v25.197c0 1.26-.505 1.764-1.261 2.016l-1.009.252v.756zM10.614 1.156h1.009c2.775 0 3.784 4.535 4.036 9.071h.757V-.104H.02v10.331h1.009C1.281 5.44 2.29 1.156 5.065 1.156h1.009v26.961c0 1.26-.505 1.764-1.261 2.016l-1.261.252v.756h9.586v-.756l-1.514-.252c-.757-.252-1.261-.504-1.261-1.764l.252-27.213z" style="fill:var(--color1, #fff)"/>
    </symbol>
  </defs>
</svg>
